<?xml version="1.0" standalone="no"?><!DOCTYPE svg PUBLIC "-//W3C//DTD SVG 1.1//EN" "http://www.w3.org/Graphics/SVG/1.1/DTD/svg11.dtd"><svg t="1726029193028" class="icon" viewBox="0 0 1024 1024" version="1.1" xmlns="http://www.w3.org/2000/svg" p-id="4299" xmlns:xlink="http://www.w3.org/1999/xlink" width="32" height="32"><path d="M512 512m-512 0a512 512 0 1 0 1024 0 512 512 0 1 0-1024 0Z" fill="#1BA27A" p-id="4300"></path><path d="M752.128 258.048H267.264v117.248h184.32v172.032H568.32V375.296h183.808z" fill="#FFFFFF" p-id="4301"></path><path d="M820.224 520.704c0-38.4-138.24-69.12-309.248-69.12s-309.248 31.232-309.248 69.12c0 33.792 107.52 61.952 249.856 68.096v246.784H568.32V588.8c143.36-6.144 251.904-34.304 251.904-68.096z m-309.248 45.056c-152.064 0-275.456-24.064-275.456-53.76s123.392-53.76 275.456-53.76c152.064 0 275.456 24.064 275.456 53.76s-123.392 53.76-275.456 53.76z" fill="#FFFFFF" p-id="4302"></path></svg>